%TF.GenerationSoftware,KiCad,Pcbnew,(5.1.8)-1*%
%TF.CreationDate,2021-07-11T17:50:16+02:00*%
%TF.ProjectId,MCP1703 SOT23,4d435031-3730-4332-9053-4f5432332e6b,rev?*%
%TF.SameCoordinates,Original*%
%TF.FileFunction,Legend,Top*%
%TF.FilePolarity,Positive*%
%FSLAX46Y46*%
G04 Gerber Fmt 4.6, Leading zero omitted, Abs format (unit mm)*
G04 Created by KiCad (PCBNEW (5.1.8)-1) date 2021-07-11 17:50:16*
%MOMM*%
%LPD*%
G01*
G04 APERTURE LIST*
%ADD10C,0.050000*%
%ADD11C,0.120000*%
%ADD12C,0.200000*%
%ADD13C,0.127000*%
G04 APERTURE END LIST*
D10*
X150571295Y-104564690D02*
X150737961Y-105064690D01*
X150904628Y-104564690D01*
X151142723Y-105064690D02*
X151095104Y-105040880D01*
X151071295Y-105017071D01*
X151047485Y-104969452D01*
X151047485Y-104826595D01*
X151071295Y-104778976D01*
X151095104Y-104755166D01*
X151142723Y-104731357D01*
X151214152Y-104731357D01*
X151261771Y-104755166D01*
X151285580Y-104778976D01*
X151309390Y-104826595D01*
X151309390Y-104969452D01*
X151285580Y-105017071D01*
X151261771Y-105040880D01*
X151214152Y-105064690D01*
X151142723Y-105064690D01*
X151737961Y-104731357D02*
X151737961Y-105064690D01*
X151523676Y-104731357D02*
X151523676Y-104993261D01*
X151547485Y-105040880D01*
X151595104Y-105064690D01*
X151666533Y-105064690D01*
X151714152Y-105040880D01*
X151737961Y-105017071D01*
X151904628Y-104731357D02*
X152095104Y-104731357D01*
X151976057Y-104564690D02*
X151976057Y-104993261D01*
X151999866Y-105040880D01*
X152047485Y-105064690D01*
X152095104Y-105064690D01*
X148374147Y-104588500D02*
X148326528Y-104564690D01*
X148255100Y-104564690D01*
X148183671Y-104588500D01*
X148136052Y-104636119D01*
X148112242Y-104683738D01*
X148088433Y-104778976D01*
X148088433Y-104850404D01*
X148112242Y-104945642D01*
X148136052Y-104993261D01*
X148183671Y-105040880D01*
X148255100Y-105064690D01*
X148302719Y-105064690D01*
X148374147Y-105040880D01*
X148397957Y-105017071D01*
X148397957Y-104850404D01*
X148302719Y-104850404D01*
X148612242Y-105064690D02*
X148612242Y-104564690D01*
X148897957Y-105064690D01*
X148897957Y-104564690D01*
X149136052Y-105064690D02*
X149136052Y-104564690D01*
X149255100Y-104564690D01*
X149326528Y-104588500D01*
X149374147Y-104636119D01*
X149397957Y-104683738D01*
X149421766Y-104778976D01*
X149421766Y-104850404D01*
X149397957Y-104945642D01*
X149374147Y-104993261D01*
X149326528Y-105040880D01*
X149255100Y-105064690D01*
X149136052Y-105064690D01*
X145753995Y-104564690D02*
X145920661Y-105064690D01*
X146087328Y-104564690D01*
X146253995Y-105064690D02*
X146253995Y-104731357D01*
X146253995Y-104564690D02*
X146230185Y-104588500D01*
X146253995Y-104612309D01*
X146277804Y-104588500D01*
X146253995Y-104564690D01*
X146253995Y-104612309D01*
X146492090Y-104731357D02*
X146492090Y-105064690D01*
X146492090Y-104778976D02*
X146515900Y-104755166D01*
X146563519Y-104731357D01*
X146634947Y-104731357D01*
X146682566Y-104755166D01*
X146706376Y-104802785D01*
X146706376Y-105064690D01*
D11*
%TO.C,J1*%
X144923200Y-108352900D02*
X144923200Y-107022900D01*
X146253200Y-108352900D02*
X144923200Y-108352900D01*
X147523200Y-108352900D02*
X147523200Y-105692900D01*
X147523200Y-105692900D02*
X152663200Y-105692900D01*
X147523200Y-108352900D02*
X152663200Y-108352900D01*
X152663200Y-108352900D02*
X152663200Y-105692900D01*
D12*
%TO.C,U1*%
X147664501Y-103767601D02*
G75*
G03*
X147664501Y-103767601I-100000J0D01*
G01*
D13*
X147194501Y-100517601D02*
X147194501Y-102017601D01*
X150334501Y-100517601D02*
X149384501Y-100517601D01*
X150334501Y-102017601D02*
X150334501Y-100517601D01*
X148144501Y-100517601D02*
X147194501Y-100517601D01*
D10*
X146882076Y-98981390D02*
X146882076Y-98481390D01*
X147048742Y-98838533D01*
X147215409Y-98481390D01*
X147215409Y-98981390D01*
X147739219Y-98933771D02*
X147715409Y-98957580D01*
X147643980Y-98981390D01*
X147596361Y-98981390D01*
X147524933Y-98957580D01*
X147477314Y-98909961D01*
X147453504Y-98862342D01*
X147429695Y-98767104D01*
X147429695Y-98695676D01*
X147453504Y-98600438D01*
X147477314Y-98552819D01*
X147524933Y-98505200D01*
X147596361Y-98481390D01*
X147643980Y-98481390D01*
X147715409Y-98505200D01*
X147739219Y-98529009D01*
X147953504Y-98981390D02*
X147953504Y-98481390D01*
X148143980Y-98481390D01*
X148191600Y-98505200D01*
X148215409Y-98529009D01*
X148239219Y-98576628D01*
X148239219Y-98648057D01*
X148215409Y-98695676D01*
X148191600Y-98719485D01*
X148143980Y-98743295D01*
X147953504Y-98743295D01*
X148715409Y-98981390D02*
X148429695Y-98981390D01*
X148572552Y-98981390D02*
X148572552Y-98481390D01*
X148524933Y-98552819D01*
X148477314Y-98600438D01*
X148429695Y-98624247D01*
X148882076Y-98481390D02*
X149215409Y-98481390D01*
X149001123Y-98981390D01*
X149501123Y-98481390D02*
X149548742Y-98481390D01*
X149596361Y-98505200D01*
X149620171Y-98529009D01*
X149643980Y-98576628D01*
X149667790Y-98671866D01*
X149667790Y-98790914D01*
X149643980Y-98886152D01*
X149620171Y-98933771D01*
X149596361Y-98957580D01*
X149548742Y-98981390D01*
X149501123Y-98981390D01*
X149453504Y-98957580D01*
X149429695Y-98933771D01*
X149405885Y-98886152D01*
X149382076Y-98790914D01*
X149382076Y-98671866D01*
X149405885Y-98576628D01*
X149429695Y-98529009D01*
X149453504Y-98505200D01*
X149501123Y-98481390D01*
X149834457Y-98481390D02*
X150143980Y-98481390D01*
X149977314Y-98671866D01*
X150048742Y-98671866D01*
X150096361Y-98695676D01*
X150120171Y-98719485D01*
X150143980Y-98767104D01*
X150143980Y-98886152D01*
X150120171Y-98933771D01*
X150096361Y-98957580D01*
X150048742Y-98981390D01*
X149905885Y-98981390D01*
X149858266Y-98957580D01*
X149834457Y-98933771D01*
X150286838Y-98481390D02*
X150572552Y-98481390D01*
X150429695Y-98981390D02*
X150429695Y-98481390D01*
%TD*%
M02*
